<?xml version="1.0" encoding="UTF-8" standalone="no"?>
<!-- Generator: Adobe Illustrator 15.0.0, SVG Export Plug-In . SVG Version: 6.00 Build 0)  -->

<svg
   version="1.1"
   id="Ebene_1"
   x="0px"
   y="0px"
   width="52.235px"
   height="52.235px"
   viewBox="0 0 52.235 52.235"
   enable-background="new 0 0 52.235 52.235"
   xml:space="preserve"
   sodipodi:docname="guacamole_weiss_randlos.svg"
   inkscape:version="1.4 (e7c3feb1, 2024-10-09)"
   xmlns:inkscape="http://www.inkscape.org/namespaces/inkscape"
   xmlns:sodipodi="http://sodipodi.sourceforge.net/DTD/sodipodi-0.dtd"
   xmlns="http://www.w3.org/2000/svg"
   xmlns:svg="http://www.w3.org/2000/svg"><defs
   id="defs4" /><sodipodi:namedview
   id="namedview4"
   pagecolor="#ffffff"
   bordercolor="#000000"
   borderopacity="0.25"
   inkscape:showpageshadow="2"
   inkscape:pageopacity="0.0"
   inkscape:pagecheckerboard="0"
   inkscape:deskcolor="#d1d1d1"
   inkscape:zoom="7.5842297"
   inkscape:cx="31.051275"
   inkscape:cy="22.546785"
   inkscape:window-width="1792"
   inkscape:window-height="1027"
   inkscape:window-x="131"
   inkscape:window-y="51"
   inkscape:window-maximized="0"
   inkscape:current-layer="Ebene_1"
   showguides="true"><sodipodi:guide
     position="26.279957,64.364211"
     orientation="1,0"
     id="guide1"
     inkscape:locked="false" /><sodipodi:guide
     position="-20.56089,26.227009"
     orientation="0,-1"
     id="guide2"
     inkscape:locked="false" /><sodipodi:guide
     position="56.844676,39.058067"
     orientation="0,-1"
     id="guide3"
     inkscape:locked="false" /><sodipodi:guide
     position="52.554512,12.857421"
     orientation="0,-1"
     id="guide4"
     inkscape:locked="false" /></sodipodi:namedview>




<path
   id="path1-8"
   style="stroke-width:1.62966;fill:#ffffff;fill-opacity:1"
   d="M 40.996094 5.2285156 A 3.0246443 3.0246443 0 0 0 40.269531 5.3242188 C 40.188051 5.3454038 40.100118 5.3693898 39.955078 5.4296875 A 2.1234437 2.1234437 0 0 0 39.470703 5.703125 A 5.4919459 5.4919459 0 0 0 39.1875 5.9511719 C 38.374301 6.7920753 37.942756 7.6967456 37.388672 8.8847656 C 36.815033 8.4121646 36.501475 7.8551399 35.072266 7.3417969 C 34.156398 7.0142369 33.467471 7.0130741 32.673828 6.9707031 C 31.880185 6.9283231 31.056868 6.9150894 30.359375 6.8808594 C 29.753142 6.8515194 29.225209 6.6464934 28.490234 6.3808594 C 27.929631 6.1771524 27.386 5.9847595 26.664062 5.9375 L 26.666016 5.9414062 A 1.7665487 1.7665487 0 0 0 26.414062 5.9257812 L 26.371094 5.9570312 L 26.380859 5.921875 C 26.199967 5.921875 26.055618 5.9286706 25.833984 5.9628906 C 25.214715 6.0411156 24.647124 6.113495 24.138672 6.203125 C 23.613921 6.296015 23.334021 6.0692532 22.271484 6.9101562 A 3.3326496 3.3326496 0 0 1 19.755859 7.6503906 L 19.755859 7.6542969 C 18.820435 7.5614069 18.400569 7.7075186 17.742188 7.8378906 C 17.083806 7.9682626 16.465994 8.1113066 15.8125 8.3867188 C 14.676629 8.8658376 14.439348 9.3617684 14.005859 9.7871094 C 13.57237 10.210819 13.141863 10.608669 12.675781 10.910156 C 10.430113 11.402312 9.6498543 10.77997 8.5253906 11.019531 C 8.2434599 11.048861 7.7805876 11.100095 7.53125 11.230469 C 5.4143249 12.319081 3.6605132 13.562006 2.34375 14.986328 C 1.0269867 16.410649 0.0859375 18.090041 0.0859375 20 C 0.0859375 20.257486 0.021385815 21.336474 0.099609375 22.460938 C 0.15827705 23.282284 0.34796134 24.236091 0.88085938 25.199219 C 0.97700948 26.427981 1.10261 27.621619 1.3046875 28.755859 C 1.6664716 31.387757 2.5543366 33.70327 3.3496094 35.396484 L 3.4257812 35.505859 L 3.359375 35.400391 C 3.452266 35.602469 3.6170641 35.720781 3.7148438 35.917969 C 3.7343985 35.957069 3.7695065 35.982376 3.7890625 36.021484 L 3.7929688 36.025391 C 8.168599 44.616946 16.987542 48.005859 26.617188 48.005859 C 35.821492 48.005859 43.940813 44.068073 48.287109 36.027344 L 47.738281 36.630859 A 2.2978171 2.2978171 0 0 0 48.326172 35.970703 C 49.160557 34.334525 49.852606 32.758256 50.832031 29.306641 A 1.4340987 1.4340987 0 0 0 50.822266 29.189453 L 50.851562 29.21875 C 51.125346 28.07473 51.345817 26.865195 51.513672 25.605469 C 52.017235 24.637452 52.085851 23.727348 52.154297 22.845703 C 52.232517 21.814129 52.207031 20.803098 52.207031 19.998047 C 52.207031 18.531356 51.648291 17.320225 50.988281 16.355469 C 50.417901 15.524342 49.734714 14.937482 48.949219 14.435547 C 49.477228 13.90265 50.023092 13.428197 50.296875 12.544922 C 50.627695 11.480754 50.253393 10.769242 49.886719 10.226562 L 49.886719 10.222656 A 6.0297329 6.0297329 0 0 0 48.804688 9.0332031 C 48.006161 8.3292131 47.03222 7.67458 46.003906 7.078125 C 44.980481 6.4833 43.939715 5.9636583 42.957031 5.6132812 A 6.5675199 6.5675199 0 0 0 41.458984 5.25 A 3.692804 3.692804 0 0 0 40.998047 5.2285156 L 40.996094 5.2285156 z M 40.917969 7.4804688 A 1.2271321 1.2271321 0 0 1 41.205078 7.4804688 A 4.6168198 4.6168198 0 0 1 42.199219 7.7246094 C 42.976565 8.0032794 43.942836 8.4765331 44.875 9.0175781 C 45.805534 9.5586251 46.695831 10.169232 47.318359 10.716797 C 47.629624 10.98895 47.880027 11.264708 48.023438 11.476562 C 48.168469 11.690049 48.170274 11.820559 48.152344 11.880859 C 48.017083 12.315978 47.59062 12.881462 46.974609 13.435547 C 46.355339 13.989631 45.556345 14.538732 44.757812 15.058594 C 43.237342 16.047795 41.786903 16.824447 41.175781 17.160156 C 41.03726 16.798372 40.826021 16.453757 40.6875 16.210938 C 40.553868 15.981155 40.330336 15.850404 40.125 15.736328 C 39.921292 15.622253 39.718199 15.528081 39.636719 15.462891 C 39.460716 15.32437 39.404378 15.144168 39.335938 14.916016 C 39.264232 14.687865 39.187461 14.38801 38.960938 14.138672 C 38.753972 13.912151 38.524678 13.811611 38.314453 13.738281 C 38.174302 13.687758 38.061677 13.656302 37.939453 13.607422 C 38.405535 12.249916 38.900421 10.940461 39.392578 9.8828125 C 39.910809 8.7697575 40.418135 7.9038195 40.802734 7.5078125 C 40.810882 7.4996725 40.851159 7.4869687 40.917969 7.4804688 z M 26.351562 8.1679688 C 26.41023 8.1679688 26.468688 8.1747875 26.517578 8.1796875 C 26.846768 8.1992435 27.236035 8.3090193 27.726562 8.4882812 C 28.376796 8.7229523 29.208972 9.0686306 30.251953 9.1191406 C 31.754496 9.1908456 33.530911 9.1672876 34.316406 9.4492188 C 34.912862 9.6627036 35.562676 10.437285 36.714844 11.125 C 36.379135 11.952866 36.024155 12.782045 35.712891 13.701172 C 35.709691 13.710962 35.716091 13.720769 35.712891 13.730469 L 35.648438 13.886719 L 35.378906 14.642578 C 36.006325 15.072807 36.465873 15.376979 37.199219 15.613281 C 37.269289 15.637751 37.281882 15.644531 37.294922 15.644531 C 37.30633 15.678754 37.352793 15.769311 37.408203 15.945312 C 37.502723 16.25658 37.695256 16.850684 38.255859 17.289062 A 5.6320965 5.6320965 0 0 0 38.990234 17.775391 C 39.035864 17.799831 39.107664 17.824832 39.177734 17.857422 C 39.285291 18.035055 39.371983 18.225109 39.445312 18.345703 C 39.771243 18.92912 39.691507 19.77194 39.869141 20.443359 L 41.173828 19.658203 L 41.482422 19.470703 C 41.485682 19.470703 41.500353 19.473903 41.501953 19.470703 C 41.827884 19.291439 43.037048 18.601692 44.119141 17.982422 C 44.153365 18.067165 44.216441 18.186436 44.244141 18.259766 C 44.462524 18.857851 44.511719 19.029925 44.511719 19.564453 C 44.511719 21.277223 42.873629 23.248713 39.570312 24.787109 C 36.265369 26.327136 31.510187 27.332031 26.267578 27.332031 C 21.026599 27.332031 16.315035 26.327136 13.011719 24.787109 C 9.7100316 23.248713 8.0566406 21.287 8.0566406 19.564453 C 8.0566406 19.150519 8.1718535 18.791943 8.4472656 18.314453 C 8.7226776 17.836964 9.1562563 17.266885 9.6679688 16.525391 C 10.09168 15.91264 10.228019 15.327909 10.363281 14.982422 C 10.505062 14.617378 10.612151 14.439577 10.734375 14.341797 C 10.85171 14.245646 11.432545 13.952139 12.007812 13.701172 C 12.591234 13.446945 13.267773 13.190282 13.888672 12.791016 C 15.259215 11.906113 16.081927 10.705723 16.681641 10.453125 C 17.393801 10.153269 19.010729 9.8326156 19.537109 9.8847656 A 5.6679489 5.6679489 0 0 0 23.662109 8.6621094 C 23.909818 8.4665504 24.891611 8.3407004 26.175781 8.1777344 A 1.3558751 1.3558751 0 0 1 26.351562 8.1679688 z M 8.5585938 13.228516 A 4.1393301 4.1393301 0 0 0 8.0039062 14.244141 C 7.8132363 14.739558 7.6779809 15.21481 7.4824219 15.5 C 6.4785529 16.966692 5.4941406 18.063701 5.4941406 19.693359 C 5.4941406 22.546889 7.9210505 25.023819 11.675781 26.787109 C 15.428883 28.550397 20.55242 29.654297 26.228516 29.654297 C 31.904613 29.654297 37.061352 28.550397 40.814453 26.787109 C 44.567555 25.023819 46.996094 22.546889 46.996094 19.693359 C 46.961872 18.774231 46.799854 17.823525 46.244141 17.082031 C 46.633628 16.831064 47.189631 16.378592 47.564453 16.111328 C 48.548765 16.636078 49.960937 18.31298 49.960938 19.998047 C 49.960938 21.668446 50.028194 23.847693 49.353516 24.851562 C 49.192179 26.207438 48.957403 27.486094 48.664062 28.705078 C 46.281504 31.433125 37.281758 36.105469 26.027344 36.105469 C 14.549665 36.105469 5.6504639 31.14991 3.5253906 28.431641 C 3.3086461 27.237102 3.1596204 25.973698 3.0683594 24.630859 C 2.1052318 23.705215 2.328125 20.88784 2.328125 19.998047 C 2.328125 17.73004 4.6814639 15.22627 8.5585938 13.228516 z M 49.054688 30.880859 L 49.107422 30.896484 L 48.59375 30.9375 L 49.054688 30.880859 z M 5.3769531 34.423828 C 7.9902218 37.381497 16.109673 41.091797 26.042969 41.091797 C 35.610687 41.091797 43.31194 37.841251 46.339844 34.916016 C 42.397702 42.257623 35.232863 45.759766 26.615234 45.759766 C 17.197444 45.759766 9.1936111 42.686191 5.3769531 34.423828 z " /></svg>
