<?xml version="1.0" encoding="UTF-8" standalone="no"?>
<!-- Generator: Adobe Illustrator 15.0.0, SVG Export Plug-In . SVG Version: 6.00 Build 0)  -->

<svg
   version="1.1"
   id="Ebene_1"
   x="0px"
   y="0px"
   width="52.235px"
   height="52.235px"
   viewBox="0 0 52.235 52.235"
   enable-background="new 0 0 52.235 52.235"
   xml:space="preserve"
   sodipodi:docname="Guacamole_circle_sw.svg"
   inkscape:version="1.4 (e7c3feb1, 2024-10-09)"
   xmlns:inkscape="http://www.inkscape.org/namespaces/inkscape"
   xmlns:sodipodi="http://sodipodi.sourceforge.net/DTD/sodipodi-0.dtd"
   xmlns="http://www.w3.org/2000/svg"
   xmlns:svg="http://www.w3.org/2000/svg"><defs
   id="defs4" /><sodipodi:namedview
   id="namedview4"
   pagecolor="#ffffff"
   bordercolor="#000000"
   borderopacity="0.25"
   inkscape:showpageshadow="2"
   inkscape:pageopacity="0.0"
   inkscape:pagecheckerboard="0"
   inkscape:deskcolor="#d1d1d1"
   inkscape:zoom="7.8105575"
   inkscape:cx="25.926446"
   inkscape:cy="28.423067"
   inkscape:window-width="1792"
   inkscape:window-height="1027"
   inkscape:window-x="146"
   inkscape:window-y="65"
   inkscape:window-maximized="0"
   inkscape:current-layer="Ebene_1"
   showguides="true"><sodipodi:guide
     position="26.279957,64.364211"
     orientation="1,0"
     id="guide1"
     inkscape:locked="false" /><sodipodi:guide
     position="-20.56089,26.227009"
     orientation="0,-1"
     id="guide2"
     inkscape:locked="false" /><sodipodi:guide
     position="56.844676,39.058067"
     orientation="0,-1"
     id="guide3"
     inkscape:locked="false" /><sodipodi:guide
     position="52.554512,12.857421"
     orientation="0,-1"
     id="guide4"
     inkscape:locked="false" /></sodipodi:namedview>
<path
   d="M 44.611,7.675 C 34.425,-2.537 17.891,-2.562 7.677,7.622 -2.537,17.807 -2.561,34.345 7.621,44.559 17.807,54.774 34.349,54.795 44.558,44.61 54.772,34.426 54.798,17.892 44.611,7.675 Z"
   id="path1"
   style="fill-opacity:1" />



<path
   id="path1-8"
   style="fill:#ffffff;fill-opacity:1;stroke-width:1.13799"
   d="m 36.645397,10.991204 a 2.1121028,2.1121028 0 0 0 -0.507357,0.06682 c -0.0569,0.01479 -0.1183,0.03154 -0.219582,0.07365 a 1.4827963,1.4827963 0 0 0 -0.338238,0.190941 3.8350144,3.8350144 0 0 0 -0.19776,0.173211 c -0.567855,0.587201 -0.869202,1.21893 -1.256119,2.048522 -0.40057,-0.330016 -0.619527,-0.718985 -1.617541,-1.077452 -0.639548,-0.228735 -1.120624,-0.229546 -1.674824,-0.259134 -0.554199,-0.0296 -1.12912,-0.03883 -1.616178,-0.06273 -0.423331,-0.02049 -0.791985,-0.163657 -1.305217,-0.349149 -0.391467,-0.142249 -0.771083,-0.276594 -1.275212,-0.309597 l 0.0014,0.0028 a 1.2335773,1.2335773 0 0 0 -0.175939,-0.01091 l -0.03,0.02182 0.0068,-0.02455 c -0.126317,0 -0.227115,0.0048 -0.381882,0.02864 -0.432433,0.05463 -0.828781,0.105167 -1.183833,0.167755 -0.366432,0.06486 -0.561886,-0.09348 -1.303852,0.493719 a 2.3271823,2.3271823 0 0 1 -1.756657,0.516904 v 0.0028 c -0.653205,-0.06486 -0.946396,0.03716 -1.406142,0.128204 -0.459802,0.09103 -0.891218,0.190919 -1.347551,0.383239 -0.793177,0.334568 -0.95887,0.680875 -1.261574,0.97789 -0.302706,0.295876 -0.603328,0.573694 -0.928791,0.784222 -1.568146,0.343671 -2.112998,-0.09091 -2.898209,0.07638 -0.196872,0.02048 -0.520095,0.05625 -0.694206,0.147298 -1.478244,0.760175 -2.702928,1.628107 -3.6224213,2.622709 -0.9194929,0.994599 -1.5766262,2.167315 -1.5766262,3.501035 0,0.179804 -0.045075,0.933259 0.00954,1.718468 0.040968,0.573545 0.1734235,1.239587 0.5455452,1.912137 0.067141,0.858042 0.1548483,1.691556 0.2959582,2.483594 0.2526333,1.837848 0.8726276,3.454766 1.4279651,4.637135 l 0.05319,0.07638 -0.04637,-0.07365 c 0.06486,0.14111 0.179944,0.223727 0.248223,0.361423 0.01366,0.0273 0.03817,0.04498 0.05182,0.07228 l 0.0027,0.0028 c 3.055496,5.999481 9.213744,8.365952 15.938106,8.365952 6.427346,0 12.097051,-2.749748 15.13206,-8.364572 l -0.383246,0.421434 a 1.6045609,1.6045609 0 0 0 0.410524,-0.460986 c 0.582649,-1.14254 1.065906,-2.243245 1.749836,-4.653501 a 1.0014281,1.0014281 0 0 0 -0.0068,-0.08183 l 0.02046,0.02046 c 0.191182,-0.798866 0.345137,-1.643482 0.46235,-2.523146 0.351637,-0.675964 0.399551,-1.311488 0.447347,-1.927139 0.05462,-0.720346 0.03683,-1.426347 0.03683,-1.988512 0,-1.024187 -0.390167,-1.869918 -0.851051,-2.543605 -0.398295,-0.580374 -0.875363,-0.990177 -1.423873,-1.340678 0.368708,-0.372121 0.749884,-0.70343 0.941066,-1.320219 0.231011,-0.743107 -0.03037,-1.239954 -0.286411,-1.618906 v -0.0028 A 4.2105499,4.2105499 0 0 0 42.098167,13.648106 C 41.540556,13.156511 40.860456,12.699383 40.142386,12.28288 39.42773,11.867514 38.700966,11.50465 38.01476,11.259982 a 4.5860855,4.5860855 0 0 0 -1.046083,-0.253678 2.5786773,2.5786773 0 0 0 -0.321872,-0.015 z m -0.05456,1.572534 a 0.85690378,0.85690378 0 0 1 0.200488,0 3.2239156,3.2239156 0 0 1 0.694206,0.170483 c 0.54282,0.194595 1.217565,0.525067 1.868493,0.902876 0.64979,0.377813 1.271483,0.804198 1.706193,1.186562 0.217354,0.190044 0.392211,0.382606 0.492355,0.530542 0.10127,0.149077 0.102535,0.240213 0.09002,0.28232 -0.09446,0.303842 -0.39225,0.698719 -0.82241,1.085636 -0.432434,0.386916 -0.990371,0.770351 -1.547984,1.13337 -1.061741,0.690757 -2.074579,1.233091 -2.501325,1.467517 -0.09673,-0.252634 -0.244237,-0.493278 -0.340965,-0.662838 -0.09331,-0.160457 -0.249408,-0.251759 -0.392793,-0.331418 -0.142249,-0.07966 -0.284068,-0.145418 -0.340966,-0.190941 -0.122903,-0.09673 -0.162243,-0.222564 -0.210035,-0.381882 -0.05008,-0.159318 -0.103682,-0.368706 -0.261862,-0.542817 -0.144524,-0.15818 -0.304639,-0.228387 -0.451439,-0.279593 -0.09786,-0.03528 -0.176512,-0.05725 -0.261862,-0.09138 0.325465,-0.947943 0.671043,-1.862334 1.014715,-2.600887 0.36188,-0.777244 0.716144,-1.381927 0.984708,-1.658458 0.0056,-0.0056 0.03381,-0.01455 0.08047,-0.01909 z m -10.171691,0.480079 c 0.04097,0 0.08179,0.0048 0.115928,0.0082 0.229873,0.01366 0.501697,0.09031 0.844231,0.215491 0.454058,0.163871 1.035165,0.405257 1.763475,0.440527 1.049224,0.05008 2.28969,0.03362 2.8382,0.230493 0.416503,0.149076 0.870268,0.689964 1.674824,1.170194 -0.234426,0.578098 -0.482307,1.157112 -0.699662,1.798936 -0.0022,0.0069 0.0022,0.01369 0,0.02046 l -0.045,0.10911 -0.188214,0.527814 c 0.438125,0.300428 0.759027,0.512831 1.27112,0.67784 0.04893,0.01709 0.05772,0.02182 0.06683,0.02182 0.008,0.0239 0.04042,0.08714 0.0791,0.210034 0.06601,0.217359 0.20045,0.63222 0.591917,0.938339 a 3.9328812,3.9328812 0 0 0 0.512813,0.339602 c 0.03186,0.01706 0.082,0.03452 0.13093,0.05729 0.07511,0.124041 0.135644,0.256755 0.186849,0.340966 0.227598,0.4074 0.171919,0.995938 0.29596,1.464789 l 0.91106,-0.548273 0.215491,-0.130931 c 0.0023,0 0.01252,0.0022 0.01363,0 0.227598,-0.12518 1.071954,-0.606829 1.827577,-1.039262 0.0239,0.05917 0.06794,0.142462 0.08729,0.193667 0.152496,0.417642 0.186849,0.537801 0.186849,0.91106 0,1.196025 -1.143875,2.572712 -3.450574,3.64697 -2.307836,1.075398 -5.628369,1.777114 -9.289272,1.777114 -3.659765,0 -6.94984,-0.701716 -9.256538,-1.777114 -2.305558,-1.07426 -3.460117,-2.444119 -3.460117,-3.646971 0,-0.289049 0.08046,-0.539442 0.272772,-0.872872 0.19232,-0.333429 0.495087,-0.731514 0.852415,-1.249298 0.295877,-0.427883 0.391081,-0.8362 0.485535,-1.077452 0.09901,-0.25491 0.173785,-0.379068 0.259134,-0.447347 0.08194,-0.06714 0.487531,-0.272098 0.889239,-0.447348 0.407402,-0.177526 0.879827,-0.356752 1.3134,-0.63556 0.957047,-0.617926 1.531545,-1.456155 1.950325,-1.632544 0.497299,-0.209388 1.626397,-0.4333 1.993967,-0.396884 a 3.9579168,3.9579168 0 0 0 2.880479,-0.853778 c 0.172974,-0.136559 0.858559,-0.224441 1.755292,-0.338239 a 0.94680475,0.94680475 0 0 1 0.122747,-0.0068 z m -12.424789,3.533771 a 2.8904856,2.8904856 0 0 0 -0.387336,0.709208 c -0.133145,0.345949 -0.227594,0.677816 -0.364151,0.876964 -0.701,1.024188 -1.388413,1.790227 -1.388413,2.928215 0,1.992613 1.694706,3.722247 4.316626,4.953549 2.620784,1.231301 6.198538,2.002152 10.162144,2.002152 3.963607,0 7.564548,-0.770851 10.18533,-2.002152 2.620784,-1.231302 4.316627,-2.960936 4.316627,-4.953549 -0.0239,-0.641826 -0.137034,-1.305702 -0.525088,-1.823487 0.271979,-0.175248 0.660234,-0.491209 0.921972,-0.677839 0.687343,0.366432 1.67346,1.537409 1.673461,2.714087 0,1.166437 0.04697,2.6882 -0.424162,3.3892 -0.112661,0.946805 -0.276605,1.839688 -0.481445,2.690903 -1.663735,1.904989 -7.948239,5.167677 -15.807173,5.167677 -8.014839,0 -14.229133,-3.460456 -15.713066,-5.358618 C 10.32833,26.359754 10.224266,25.477522 10.160539,24.53982 9.4879885,23.893444 9.6436341,21.926078 9.6436341,21.304736 c 0,-1.583744 1.6433319,-3.332121 4.3507229,-4.727148 z m 28.278339,12.326594 0.03683,0.01091 -0.358696,0.02864 z M 11.772624,31.37823 c 1.82484,2.065333 7.494637,4.656229 14.431037,4.656229 6.681117,0 12.058886,-2.269851 14.173265,-4.312536 -2.75279,5.126629 -7.755981,7.572169 -13.773654,7.572169 -6.576424,0 -12.165483,-2.146272 -14.830648,-7.915862 z" /></svg>
