<?xml version="1.0" encoding="UTF-8"?>
<svg version="1.1" width="32" height="32" viewBox="0 0 32 32" xmlns="http://www.w3.org/2000/svg">
 <path d="M25.119 2.876a1.856 1.856 0 0 0-.445.058c-.05.013-.105.028-.194.065a1.303 1.303 0 0 0-.297.168 3.37 3.37 0 0 0-.173.152c-.499.516-.764 1.071-1.104 1.8-.352-.29-.545-.632-1.422-.947-.562-.201-.985-.202-1.472-.228-.487-.026-.992-.034-1.42-.055-.372-.018-.696-.143-1.147-.306-.344-.125-.677-.243-1.12-.272l.001.002a1.084 1.084 0 0 0-.154-.01l-.027.02.006-.022c-.111 0-.2.004-.336.025-.38.048-.728.092-1.04.147-.322.057-.494-.082-1.146.434a2.045 2.045 0 0 1-1.543.455v.002c-.574-.057-.832.033-1.236.113s-.783.167-1.184.336c-.697.294-.843.599-1.109.86-.266.26-.53.504-.816.689-1.378.302-1.856-.08-2.546.067-.173.018-.457.05-.61.13-1.299.668-2.376 1.43-3.184 2.304C.593 9.737.016 10.768.016 11.94c0 .158-.04.82.008 1.51.036.504.153 1.089.48 1.68.059.754.136 1.486.26 2.182.222 1.615.766 3.036 1.254 4.075l.047.068-.04-.065c.057.124.158.196.218.317.012.024.033.04.045.064l.002.002c2.685 5.272 8.097 7.352 14.006 7.352 5.648 0 10.63-2.416 13.297-7.35l-.336.37a1.41 1.41 0 0 0 .36-.405c.512-1.004.937-1.972 1.538-4.09a.88.88 0 0 0-.006-.072l.018.018c.168-.702.303-1.444.406-2.217.309-.594.351-1.152.393-1.693.048-.633.033-1.253.033-1.747 0-.9-.343-1.644-.748-2.236-.35-.51-.77-.87-1.252-1.178.324-.327.66-.618.828-1.16.203-.653-.027-1.09-.252-1.423V5.94a3.7 3.7 0 0 0-.664-.73c-.49-.432-1.088-.834-1.719-1.2-.628-.365-1.266-.683-1.869-.898a4.03 4.03 0 0 0-.92-.223 2.266 2.266 0 0 0-.283-.014zm4.945 15.74.033.01-.316.025.283-.035z" fill="#000"/>
 <path d="M5.216 7.783c-2.38 1.226-3.824 2.763-3.824 4.155 0 .546-.137 2.275.454 2.843.056.824.147 1.6.28 2.333 1.304 1.668 6.765 4.708 13.808 4.708 6.906 0 12.428-2.867 13.89-4.541.18-.748.325-1.532.424-2.364.414-.616.372-1.954.372-2.979 0-1.034-.866-2.063-1.47-2.385-.23.164-.571.442-.81.596.341.455.44 1.038.461 1.602 0 1.751-1.49 3.271-3.793 4.353-2.303 1.082-5.467 1.76-8.95 1.76s-6.627-.678-8.93-1.76c-2.304-1.082-3.794-2.602-3.794-4.353 0-1 .604-1.673 1.22-2.573.12-.175.203-.466.32-.77a2.54 2.54 0 0 1 .341-.625zM3.263 20.79c2.342 5.07 7.253 6.957 13.032 6.957 5.288 0 9.684-2.15 12.103-6.655-1.858 1.795-6.583 3.79-12.454 3.79-6.096 0-11.079-2.278-12.682-4.093z" fill="#fff"/>
 <path d="M25.071 4.257c-.041.004-.065.012-.07.017-.236.243-.548.774-.866 1.457-.302.649-.605 1.453-.891 2.286.075.03.144.049.23.08.129.045.27.107.397.246.139.153.186.337.23.477.042.14.076.25.184.335.05.04.175.098.3.168.126.07.263.15.345.291.085.149.215.361.3.583.375-.206 1.265-.682 2.198-1.289.49-.319.98-.657 1.36-.997.378-.34.64-.686.723-.953.011-.037.009-.117-.08-.248-.088-.13-.241-.3-.432-.467-.382-.336-.929-.71-1.5-1.042-.572-.332-1.165-.623-1.642-.794a2.833 2.833 0 0 0-.61-.15.753.753 0 0 0-.176 0z" fill="#e4c548" />
 <path d="M16.133 4.679a.832.832 0 0 0-.108.006c-.788.1-1.39.178-1.542.298a3.478 3.478 0 0 1-2.532.75c-.323-.032-1.315.164-1.752.348-.368.155-.872.892-1.713 1.435-.381.245-.797.402-1.155.558-.353.154-.709.335-.781.394-.075.06-.141.169-.228.393-.083.212-.166.57-.426.946-.314.455-.58.805-.749 1.098s-.24.513-.24.767c0 1.057 1.014 2.261 3.04 3.205 2.027.945 4.919 1.562 8.135 1.562 3.217 0 6.134-.617 8.162-1.562 2.027-.944 3.033-2.154 3.033-3.205 0-.328-.031-.433-.165-.8-.017-.045-.055-.118-.076-.17-.664.38-1.406.803-1.606.913-.001.002-.01 0-.012 0l-.19.115-.8.482c-.109-.412-.06-.93-.26-1.288-.045-.074-.099-.19-.165-.299-.043-.02-.087-.035-.115-.05a3.456 3.456 0 0 1-.45-.299c-.344-.269-.462-.634-.52-.825-.034-.108-.063-.163-.07-.184-.008 0-.015-.004-.058-.019-.45-.145-.732-.332-1.117-.596l.165-.464.039-.095c.002-.006-.002-.013 0-.019.191-.564.409-1.072.615-1.58-.707-.422-1.106-.897-1.472-1.028-.482-.173-1.572-.159-2.494-.203-.64-.031-1.15-.243-1.549-.387-.301-.11-.54-.178-.742-.19-.03-.003-.066-.007-.102-.007z" fill="#598d36"/>
</svg>
